#!OML:ASF F:\VICON\USERDATA\INSTALL\rory3\rory3.ASF
:FULLY-SPECIFIED
:DEGREES
3573
root 10.2109 17.5805 8.7158 18.134 -40.3123 1.49311
lowerback 15.8297 3.88613 0.486231
upperback 7.61979 5.08681 7.02684
thorax -1.34828 2.32709 6.30294
lowerneck -9.71313 -9.3678 -9.98825
upperneck 29.0539 -14.0168 8.30186
head 12.5572 -6.39052 2.82004
rclavicle -4.45278e-014 -6.83819e-014
rhumerus -3.58093 33.1762 -92.7675
rradius 45.1074
rwrist -51.8889
rhand -32.3539 -25.7306
rfingers 7.12502
rthumb -5.59044 -55.6369
lclavicle -4.45278e-014 -6.83819e-014
lhumerus -10.5777 -37.5097 92.0917
lradius 53.3833
lwrist 13.5536
lhand -6.30776 54.0805
lfingers 7.12502
lthumb 19.5365 -1716.88
rfemur -33.9895 -8.5004 8.59609
rtibia 35.5319
rfoot -25.3007 -7.23187
rtoes -11.1616
lfemur -40.9865 -0.884059 -22.5151
ltibia 29.216
lfoot -3.91488 -3.10912
ltoes -9.53175
3574
root 10.2262 17.5823 8.71111 18.3475 -40.4663 1.48311
lowerback 15.9388 4.0946 0.453232
upperback 7.61351 5.35848 7.02705
thorax -1.44518 2.46207 6.26541
lowerneck -9.73674 -9.51395 -10.1131
upperneck 28.9752 -14.2603 8.54262
head 12.5922 -6.48039 2.88876
rclavicle -9.54166e-015 -6.04305e-014
rhumerus -4.69213 33.7764 -93.9157
rradius 44.9271
rwrist -52.0735
rhand -32.2213 -25.6414
rfingers 7.12502
rthumb -5.46238 -55.551
lclavicle -9.54166e-015 -6.04305e-014
lhumerus -11.6096 -37.873 92.2106
lradius 53.6365
lwrist 14.2931
lhand -6.12712 54.2904
lfingers 7.12502
lthumb 19.7102 -1716.69
rfemur -34.3015 -8.97384 8.89975
rtibia 35.837
rfoot -25.6795 -7.5945
rtoes -10.9965
lfemur -41.2428 -0.764928 -22.5877
ltibia 29.1828
lfoot -3.80997 -3.02687
ltoes -9.42388
3575
root 10.2402 17.5844 8.70669 18.4656 -40.7157 1.46593
lowerback 16.1232 4.31705 0.423367
upperback 7.65865 5.64417 6.97962
thorax -1.52345 2.6026 6.16868
lowerneck -9.78874 -9.64391 -9.99668
upperneck 28.8789 -14.4662 8.59229
head 12.5826 -6.54969 2.85115
rclavicle -4.13472e-014 -8.42847e-014
rhumerus -5.67189 34.3241 -95.0464
rradius 44.7099
rwrist -52.1419
rhand -32.1904 -25.2092
rfingers 7.12502
rthumb -5.4326 -55.1196
lclavicle -4.13472e-014 -8.42847e-014
lhumerus -12.6045 -38.2516 92.1985
lradius 54.0165
lwrist 14.9091
lhand -5.89895 54.4305
lfingers 7.12502
lthumb 19.9295 -1716.57
rfemur -34.5874 -9.46617 9.22572
rtibia 36.269
rfoot -25.9111 -7.83278
rtoes -10.6088
lfemur -41.3975 -0.501681 -22.7125
ltibia 29.1507
lfoot -3.70828 -3.027
ltoes -9.51195
3576
root 10.2482 17.5913 8.72301 18.3899 -41.3282 1.35764
lowerback 16.3042 4.58437 0.392139
upperback 7.84704 5.97143 6.92756
thorax -1.45056 2.75763 6.06512
lowerneck -9.87491 -9.69687 -9.93746
upperneck 28.8696 -14.5194 8.51795
head 12.5908 -6.57016 2.80035
rclavicle 2.38542e-014 -1.59028e-014
rhumerus -6.55072 35.004 -96.1372
rradius 44.4248
rwrist -52.2225
rhand -32.0512 -24.1546
rfingers 7.12502
rthumb -5.29818 -54.0684
lclavicle 2.38542e-014 -1.59028e-014
lhumerus -13.5805 -38.3572 92.1485
lradius 54.5516
lwrist 15.4053
lhand -5.44124 54.6557
lfingers 7.12502
lthumb 20.3694 -1716.39
rfemur -34.6662 -9.89249 9.55222
rtibia 36.7302
rfoot -25.8657 -7.76587
rtoes -10.444
lfemur -41.1625 -0.235012 -22.7353
ltibia 29.1405
lfoot -3.73876 -2.62051
ltoes -9.48145
3577
root 10.2648 17.5895 8.70248 18.7947 -41.2621 1.32362
lowerback 16.2306 4.62073 0.280703
upperback 7.80668 6.00815 7.02494
thorax -1.48015 2.77398 6.22906
lowerneck -9.97314 -9.71644 -10.1328
upperneck 28.8658 -14.4892 8.50544
head 12.623 -6.57332 2.82673
rclavicle 3.81667e-014 1.27222e-014
rhumerus -7.33202 35.8598 -97.0691
rradius 44.0621
rwrist -52.3128
rhand -32.4102 -24.1415
rfingers 7.12502
rthumb -5.64481 -54.0463
lclavicle 3.81667e-014 1.27222e-014
lhumerus -14.4681 -38.2225 92.1374
lradius 55.1133
lwrist 15.8661
lhand -4.94586 54.55
lfingers 7.12502
lthumb 20.8454 -1716.55
rfemur -35.2441 -10.5489 10.0356
rtibia 37.2812
rfoot -26.0074 -7.87299
rtoes -10.0177
lfemur -41.706 -0.15188 -22.7578
ltibia 29.1454
lfoot -3.56463 -2.76971
ltoes -9.48291
3578
root 10.2751 17.596 8.69824 19.018 -41.5639 1.00502
lowerback 16.3306 4.81411 0.279595
upperback 7.95586 6.24801 7.11878
thorax -1.40989 2.88506 6.28536
lowerneck -9.99911 -9.80003 -10.3105
upperneck 28.6922 -14.5723 8.60352
head 12.593 -6.61673 2.87525
rclavicle 4.45278e-014 3.97569e-014
rhumerus -7.99311 36.4203 -97.9081
rradius 43.7381
rwrist -52.2934
rhand -32.3347 -24.7907
rfingers 7.12502
rthumb -5.57186 -54.6974
lclavicle 4.45278e-014 3.97569e-014
lhumerus -15.2566 -38.2151 92.0975
lradius 55.7102
lwrist 16.2542
lhand -4.55009 54.3262
lfingers 7.12502
lthumb 21.2256 -1716.82
rfemur -35.4544 -10.8969 10.6234
rtibia 37.8606
rfoot -25.9401 -7.99276
rtoes -10.7335
lfemur -41.7349 0.117422 -22.5785
ltibia 29.1394
lfoot -3.5233 -2.66173
ltoes -9.60587
3579
root 10.2871 17.5978 8.69054 19.1776 -41.8909 0.810026
lowerback 16.4656 5.02501 0.26692
upperback 8.04076 6.5146 7.11477
thorax -1.42043 3.01353 6.23122
lowerneck -9.84933 -9.87519 -10.3866
upperneck 28.412 -14.6914 8.78045
head 12.486 -6.66558 2.93947
rclavicle -6.83819e-014 2.22639e-014
rhumerus -8.65014 36.5821 -98.7986
rradius 43.456
rwrist -52.2907
rhand -32.2628 -25.0708
rfingers 7.12502
rthumb -5.50244 -54.9794
lclavicle -6.83819e-014 2.22639e-014
lhumerus -16.0912 -38.2771 92.0545
lradius 56.3294
lwrist 16.4905
lhand -4.22614 54.2377
lfingers 7.12502
lthumb 21.5368 -1716.94
rfemur -35.7292 -11.1722 11.1028
rtibia 38.5498
rfoot -25.7856 -8.15928
rtoes -11.3479
lfemur -41.7822 0.321773 -22.4691
ltibia 29.1056
lfoot -3.47242 -2.50719
ltoes -10.0129
